<?xml version="1.0" encoding="utf-8"?>
<!-- Generator: Adobe Illustrator 23.1.1, SVG Export Plug-In . SVG Version: 6.00 Build 0)  -->
<svg version="1.1" id="Layer_1" xmlns="http://www.w3.org/2000/svg" xmlns:xlink="http://www.w3.org/1999/xlink" x="0px" y="0px"
	 viewBox="0 0 500 158.99" style="enable-background:new 0 0 500 158.99;" xml:space="preserve">
<style type="text/css">
	.st0{fill:#007AC2;}
</style>
<g>
	<path class="st0" d="M411.77,117.14l-4.85-7.14c3.99-1.74,6.45-5.17,6.45-9.06c0-5.76-3.95-8.94-11.11-8.94
		c-0.65,0-1.95,0.03-3.37,0.06c-1.73,0.04-3.65,0.09-4.81,0.09h-6.52v0.4c0,2.18,1.06,2.62,4.29,3.2v26.11
		c-3.28,0.58-4.44,1.03-4.44,3.15v0.4h14.23v-2.47l-0.28-0.09c-0.9-0.3-2.3-0.61-4.26-0.95v-10.65c1.58,0.18,3.08,0.18,4.53,0.02
		l6.37,9.46c2.71,3.99,4.31,5.21,6.84,5.21c1.26,0,2.38-0.46,2.95-0.86l0.17-0.12v-2l-0.24-0.11
		C415.23,121.79,413.71,120.03,411.77,117.14 M399.9,108.05L399.9,108.05c-0.87,0-1.81-0.07-2.81-0.2V95.43
		c1.16-0.11,2.94-0.11,3.84-0.11c4.51,0,6.8,2.02,6.8,6.01c0,1.24-0.25,3.02-1.44,4.41C404.98,107.27,402.84,108.05,399.9,108.05
		 M89.97,88.52c0,0-3.02-4.4-6.22-11.47c0,0,2.31-0.26,3.78-1.64c0,0,1.82-1.29,1.73-4.45c0,0-0.16-3.35-2.89-4.49
		c0,0-0.98-0.76-5.47-0.67c0,0,0.13-1.07,0.33-1.89c0,0,2.16-7.67,5.54-17.14c0,0,2.44,5.29,6.58,17.25c0,0,0.31,0.71,0.4,1.69
		h-1.91c0,0,1.18,0.22,1.5,3.78c0,0,0.53,9.42-0.05,20.23c0,0,0.02,1.23-0.45,1.23C92.84,90.95,91.84,91.43,89.97,88.52
		 M117.03,27.87H24.1c-2.64,0-4.78,2.14-4.78,4.78v92.93c0,2.65,2.14,4.79,4.78,4.79h92.93c2.64,0,4.78-2.14,4.78-4.79V32.65
		C121.81,30.01,119.67,27.87,117.03,27.87 M102.34,114.8c0,0-0.14,1.65-0.94,1.6c0,0-0.27,0.36-7.56-0.09c0,0-1.6-0.4-7.42-0.04
		c0,0,1.29-0.31,1.51-3.64c0,0,0.35-9.43,0.18-19.92c0,0,0.07-1.53-1.02-1.64c0,0-1.02,0.13-1.62-0.8c0,0-3.21-6.49-5.28-11.7
		c-0.23-0.61-0.46-1.19-0.65-1.73c0,0-0.49-0.62,0.49-0.45c0,0,2.22,0.05,3.51-1.24c0,0,1.91-1.87,1.33-4.27
		c0,0-0.09-2.12-2.27-2.71c0,0-1.82-0.62-4.71-0.04c0,0-1.02,0.13-1.06,1.38v19.56c0,0-0.31,2.09,2.14,1.91l3.34,0.01
		c0,0,1.11-0.19,0.75,0.79l-0.49,2.4c0,0-0.09-0.38-1.34-0.47c0,0-1.2-0.41-6.76-0.1c0,0-1.29-0.04-1.33,0.75v7.62h5.6
		c0,0,3.42,0.08,3.91-0.18l-0.71,3.64c0,0-0.45-0.45-1.56-0.4c0,0-1.69-0.36-7.29-0.09l0.09,8.28c0,0-0.04,2.85,1.29,3.16
		c0,0-2.94-0.4-7.25,0c0,0,1.47-0.49,1.65-2.67c0,0,0.67-9.83,0.4-18.9c0,0,0.22-3.74-1.29-4.19l2.31,0.01c0,0,1.78,0.32,2.14-3.73
		c0,0,0.35-3.69,0.39-8.31c0.01-2.55-0.06-5.4-0.34-8.05c0,0,0.05-4.09-2.62-4.36l-9.16-0.04c0,0,3.6,1.07,5.38,3.29
		c0,0,2.6,2.86,2.58,8.27c0,0,0.03,0.31,0.04,0.89c0.07,1.95-0.04,7.09-2.58,9.74c0,0-0.66,1.51-4.84,2.58c0,0-1.82,0.71-1.78,3.6
		c0,0-0.22,8.98,0,19.92c0,0,0,1.34,1.6,2c0,0-2.85-0.58-8.05-0.18c0,0,1.16-0.09,1.51-1.73c0,0,0.71-1.73,0.76-11.16v-8.89
		c0,0,0.04-3.15-1.83-3.6c0,0-3.42-0.54-5.02-2.45c0,0-2.31-1.74-2.4-8.71c0,0-0.04-0.41-0.06-1.11c-0.04-1.63,0.08-4.88,1.34-7.47
		c0,0,1.51-3.87,6.27-4.76c0,0-1.72-3.11-12.92-20.05v17.47c0,0,0.16,1.87,2.2,2.05h5.03c0,0-0.94,0.22-7.38,11.51
		c0,0-0.33,0.51-0.73,1.25c-0.68,1.25-1.58,3.15-1.5,4.36v5.87c0,0,0,1.51,2.18,1.82h4.27c-2.4,0.18-2.36,2.18-2.36,2.18
		c-0.49,8.99-0.14,19.81-0.14,19.81c-0.08,1.2,1.78,1.33,1.78,1.33s4.09,0.23,5.51-0.06c0,0,1.56-0.18,2.4-1.49l-0.53,3.04
		c0,0-0.07,0.69-1.11,0.93c0,0-0.6,0.36-4.9-0.08c0,0-4.18-0.31-8.89-0.05c0,0,1.82-0.58,1.78-4.26c0,0,0.13-7.74,0-17.25
		c0,0-0.09-3.78-2.57-3.65l-3.43,0.04c0,0,2.14-0.62,2.23-2.98l-0.01-6.28c0-0.51-0.15-2.1-1.26-3.98
		c-1.03-1.72-2.48-5.32-5.16-8.52c-2.63-3.13-4.85-3.52-4.85-3.52h5.97c0,0,1.41,0.43,3.03,2.49c0.96,1.22,5.08,8.99,5.08,8.99
		l4.4-7.78c0,0,1.55-3.34-0.8-3.56h-5.92c0,0,2.09,0,2.22-2.14c0,0,0.68-11.25,0.13-19.34c0,0,0.05-2.85-1.16-3.64h7.47
		c0,0-0.18,1.51,1.96,4.98l9.7,15.43l-0.01-16.54c0,0,0.13-3.69-1.51-3.96c0,0,2.82,0.22,17.99,0.04c0,0,0.93-0.27,1.6,1.77
		c0,0,1.48,4.89,6.33,14.41c0,0,2.03-5.38,4.61-14.14c0,0,0.55-1.78-0.34-2.14c0,0,2.09,0.35,5.29,0c0,0-0.18,0.8,2.31,7.25
		c0,0,0.84,2.13,4.14,10.22c0,0,2.18-5.51,4.72-14.23c0,0,1.11-2.54-0.31-3.07c0,0,1.6,0.27,5.33-0.04c0,0-0.98,0.42-8.94,24.87
		h2.09c0,0-0.93,0.12-1.02,1.81c0,0,0,3.7,0,11.03c0,3.03,0,6.69,0,10.98c0,0-0.04,1.62,1.47,1.47h2.09c0,0,1.47-0.07,1.24,0.49
		l-0.58,2.8c0,0-0.35-0.65-1.6-0.65c0,0-1.16-0.31-6.54-0.18c0,0-1.31-0.06-1.3,1.05l0.01,6.93c6,0.05,5.02,0.05,5.02,0.05
		c3.56,0.09,3.82-0.14,3.82-0.14l-0.58,3.43c0,0-0.36-0.35-1.64-0.4c0,0-1.2-0.22-6.63-0.06v7.82c0,0,0.04,1.28,1.78,1.38
		c0,0,1.6,0.44,4.85,0.04c0,0,3.29,0.2,3.96-1.89L102.34,114.8z M108.69,91.02c-0.98,0.13-1.78-1.02-1.78-1.02
		c-8.45-13.07-8.89-13.12-8.89-13.12c5.65-6.67,8.98-10.35,8.98-10.35c0.76-0.85,2.13-0.8,2.13-0.8h3.56
		c-1.06,0.4-3.02,2.53-3.02,2.53c-3.47,3.34-7.12,7.64-7.12,7.64c9.08,14.36,11.19,15.12,11.19,15.12H108.69z M76.9,61.14
		c1.28,3.29,0.97,3.96,0.97,3.96c0,0.62-0.69,0.71-0.69,0.71h-5.58c0.46-4.47,0.44-5.02,0.44-5.02c-0.93,1.67-1.6,1.78-1.6,1.78
		c-1.51,0.8-8.49,0.62-8.49,0.62c-2.05-0.02-2.27-1.69-2.27-1.69c-0.13-4,0-7.17,0-7.17c0.09-0.27,0.36-0.27,0.36-0.27
		c7.65-0.27,7.78,0.31,7.78,0.31l0.44-3.65c-0.76,0.27-1.51,0.32-1.51,0.32c-4.27,0.22-7.07,0.08-7.07,0.08v-5.56
		c-0.09-2.18,1.56-2.18,1.56-2.18c4.84-0.22,5.69,0,5.69,0c2.09-0.09,2.8,1.96,2.8,1.96C74.58,54.91,76.9,61.14,76.9,61.14
		 M62.53,70.65c0,0,1.45,2.09,1.56,6.9c0,0,0.25,5.69-1.17,8.86c0,0-1.49,3.59-6.2,3.45c0,0-3.12,0.05-5.02-3.36
		c0,0-1.56-2.54-1.29-8.94c0,0-0.09-4.85,1.32-6.9c0,0,1.8-3.11,5.79-2.84C57.51,67.81,60.87,67.61,62.53,70.65 M183.26,113.83
		c-1.63,4.6-2.38,6.7-5.15,6.7h-2.79l-0.09-0.27c0,0-5.93-17.09-9.84-28.26l-2.27,29.34c1.62,0.28,3.77,0.68,5.17,1.15l0.28,0.09
		v2.84h-15.64v-0.4c0-2.43,1.09-2.99,5.38-3.74l2.51-31.67c-3.82-0.73-4.8-1.31-4.8-3.78v-0.4h9.52c3.64,0,4.39,0.73,6.16,6.05
		l7.19,21.5l7.24-21.2c1.84-5.46,2.6-6.35,5.44-6.35h10.05v0.4c0,2.48-0.98,3.05-4.8,3.78l2.16,31.67c4.29,0.75,5.38,1.31,5.38,3.74
		v0.4h-16.83v-2.84l0.28-0.09c1.41-0.47,3.55-0.87,5.18-1.15l-2.15-29.44C188.68,98.3,186.13,105.67,183.26,113.83 M345.2,125.42
		h-23.96v-0.4c0-2.18,1.06-2.62,4.29-3.2V95.76c-3.23-0.58-4.29-1.02-4.29-3.2v-0.4h24.01l0.1,0.26c0.22,0.56,0.32,1.34,0.32,2.37
		c0,1.77-0.68,4.27-1.16,5.48l-0.1,0.25h-2.01l-0.11-0.24c-0.71-1.56-1.15-2.89-1.54-4.65h-9.97v10.39h10.75l-0.04,2.06
		c-0.54,1.08-1.51,1.6-2.98,1.6h-7.73v12.27h10.06c0.38-1.99,0.85-3.52,1.5-4.94l0.11-0.24h2.01l0.1,0.25
		c0.48,1.2,1.16,3.75,1.16,5.62c0,0.89-0.16,1.83-0.42,2.51L345.2,125.42z M482.47,92.15v0.4c0,2-1.08,2.5-3.54,3.07l-8.25,15.78
		v10.46c1.36,0.24,3.1,0.61,4.26,0.99l0.28,0.09v2.47H460.9v-0.4c0-2.05,1.03-2.59,4.54-3.2v-9.43l-8.8-16.76
		c-2.54-0.58-3.59-1.05-3.59-3.07v-0.4h13.83v2.48l-0.28,0.09c-1.03,0.33-2.46,0.56-3.72,0.76l-0.33,0.05l6.11,12.4l6.24-12.4
		l-0.4-0.06c-1.26-0.2-2.69-0.43-3.7-0.75l-0.28-0.09v-2.48H482.47z M446.51,117.02c0.48,1.2,1.16,3.75,1.16,5.62
		c0,0.89-0.16,1.83-0.42,2.51l-0.1,0.26h-23.96v-0.4c0-2.18,1.06-2.62,4.29-3.2V95.76c-3.23-0.58-4.29-1.02-4.29-3.2v-0.4h24.01
		l0.1,0.26c0.22,0.56,0.32,1.34,0.32,2.37c0,1.77-0.68,4.27-1.16,5.48l-0.1,0.25h-2.01l-0.11-0.24c-0.71-1.56-1.15-2.89-1.54-4.65
		h-9.97v10.39h10.75l-0.04,2.06c-0.54,1.08-1.51,1.6-2.98,1.6h-7.73v12.27h10.07c0.38-1.99,0.85-3.52,1.5-4.94l0.11-0.24h2.01
		L446.51,117.02z M225.27,125.96c9.67,0,16.68-7.43,16.68-17.67c0-10.13-6.3-16.68-16.04-16.68c-9.55,0-16.49,7.37-16.49,17.52
		C209.42,119.36,215.64,125.96,225.27,125.96 M225.61,95.23c6.44,0,10.6,5.24,10.6,13.36c0,8.33-4.12,13.7-10.5,13.7
		c-6.41,0-10.55-5.28-10.55-13.46C215.17,100.57,219.27,95.23,225.61,95.23 M338.85,73.2c9.52,0,16.43-7.32,16.43-17.4
		c0-9.98-6.2-16.43-15.8-16.43c-9.41,0-16.23,7.26-16.23,17.25C323.25,66.69,329.38,73.2,338.85,73.2 M339.19,42.93
		c6.34,0,10.43,5.16,10.43,13.16c0,8.2-4.06,13.5-10.34,13.5c-6.31,0-10.39-5.2-10.39-13.25C328.91,48.19,332.94,42.93,339.19,42.93
		 M308.13,122.75l0.29,0.09v2.58h-14.29l0.01-0.41c0.06-2.21,1.5-2.8,4.69-3.16V95.63h-6.77c-0.42,1.96-0.88,3.45-1.54,4.94
		l-0.11,0.24h-2.02l-0.1-0.25c-0.47-1.19-1.16-3.89-1.16-5.67c0-1.09,0.1-1.9,0.32-2.46l0.1-0.26h27.69l0.1,0.26
		c0.22,0.57,0.32,1.37,0.32,2.46c0,1.78-0.69,4.49-1.17,5.67l-0.1,0.25h-2.01l-0.11-0.24c-0.65-1.48-1.12-2.97-1.54-4.94h-6.67
		v26.32C305.19,122.1,307.02,122.42,308.13,122.75 M215.88,57.06c0-13.02,9.63-17.64,17.88-17.64c2.62,0,6.44,0.22,8.56,0.84
		l0.21,0.06l0.06,0.21c0.21,0.7,0.31,1.76,0.31,2.5c0,2.12-0.84,4.5-1.34,5.74l-0.1,0.25h-1.98l-0.11-0.23
		c-0.42-0.88-1.18-2.71-1.64-5.26c-1.34-0.42-3.13-0.63-5.33-0.63c-6.5,0-10.87,5.21-10.87,12.96c0,10.02,5.77,13.59,11.16,13.59
		c2.99,0,4.64-0.4,5.92-0.81v-7.9c-1.66-0.16-3.3-0.5-4.45-0.91l-0.26-0.1v-1.97l0.26-0.1c1.37-0.5,3.42-1.09,5.38-1.09
		c2.1,0,3.44,0.65,3.98,1.25l0.1,0.11v11.46l-0.14,0.12c-1.6,1.36-5.22,3.64-11.48,3.64C220.11,73.15,215.88,64.48,215.88,57.06
		 M303.89,70.23l-0.27-0.09c-0.89-0.29-2.26-0.6-4.2-0.93V58.73c1.56,0.18,3.03,0.18,4.46,0.02l6.28,9.32
		c2.67,3.93,4.25,5.13,6.74,5.13c1.25,0,2.34-0.46,2.9-0.85l0.17-0.12v-1.97l-0.24-0.1c-2.45-1.06-3.95-2.8-5.85-5.64l-4.78-7.03
		c3.93-1.71,6.35-5.09,6.35-8.92c0-5.68-3.88-8.8-10.94-8.8c-0.64,0-1.92,0.03-3.32,0.06c-1.71,0.04-3.6,0.08-4.74,0.08h-6.42v0.4
		c0,2.15,1.04,2.58,4.23,3.15v25.71c-3.23,0.57-4.37,1.02-4.37,3.1v0.4h14.01V70.23z M299.42,43.14c1.14-0.1,2.89-0.1,3.78-0.1
		c4.44,0,6.7,1.99,6.7,5.92c0,1.22-0.25,2.97-1.42,4.35c-1.28,1.5-3.4,2.26-6.29,2.26c-0.85,0-1.78-0.07-2.76-0.2V43.14z
		 M249.28,40.3v-0.4h14.4v2.42l-0.26,0.1c-1.13,0.42-3.02,0.71-4.6,0.94v15.88c0,6.82,2.82,10,8.88,10c5.47,0,8.25-3.36,8.25-10
		V43.37c-1.58-0.23-3.47-0.52-4.6-0.94l-0.26-0.1v-2.42h13.43v0.4c0,2.09-1.14,2.54-4.37,3.1l-0.05,16.18
		c0,8.29-5.02,13.66-12.78,13.66c-9.19,0-13.66-4.47-13.66-13.66V43.41C250.42,42.84,249.28,42.4,249.28,40.3 M174.16,62.82
		c0-3.84-2.06-5.42-5.38-6.73c-1.3-0.54-2.28-0.9-3.14-1.21c-1.49-0.55-2.66-0.99-4.58-1.97c-4.15-2.11-6.26-5.48-6.26-10.03
		c0-6.48,4.91-10.19,13.48-10.19c5.35,0,8.67,0.71,9.76,0.95l0.22,0.05l0.07,0.22c0.73,2.18,0.39,5.3-1,9.29l-0.09,0.27h-2.27
		l-0.11-0.2c-0.62-1.11-1.56-3.72-1.99-5.8c-0.99-0.28-2.81-0.68-5.23-0.68c-4.51,0-6.99,1.94-6.99,5.47c0,2.54,1.37,4.29,4.46,5.68
		c1.59,0.73,2.6,1.1,4.28,1.71l1.56,0.57c6.39,2.35,9.24,5.85,9.24,11.34c0,7.48-5.08,11.77-13.95,11.77
		c-6.73,0-10.97-2.29-12.11-2.99l-0.14-0.09l-0.04-0.16c-0.75-3,0.22-7.05,1.44-9.54l0.11-0.22h2.33l0.1,0.24
		c0.93,2.08,1.55,4.87,1.77,6.79c1.39,0.87,3.88,1.77,6.9,1.77C171.26,69.11,174.16,66.7,174.16,62.82 M383.14,63.37
		c0,6.24-4.23,9.82-11.62,9.82c-5.59,0-9.12-1.9-10.07-2.49l-0.14-0.09l-0.04-0.16c-0.62-2.5,0.18-5.87,1.2-7.95l0.11-0.22h2.01
		l0.11,0.24c0.77,1.72,1.28,4.01,1.47,5.61c1.15,0.71,3.18,1.44,5.65,1.44c3.83,0,6.21-1.97,6.21-5.14c0-3.14-1.69-4.44-4.41-5.51
		c-1.09-0.44-1.89-0.74-2.6-1.01c-1.23-0.46-2.2-0.82-3.79-1.63c-3.46-1.76-5.22-4.58-5.22-8.37c0-5.41,4.09-8.51,11.23-8.51
		c2.99,0,5.64,0.26,8.1,0.79l0.22,0.05l0.07,0.22c0.61,1.82,0.33,4.42-0.83,7.74l-0.09,0.27h-1.97l-0.11-0.21
		c-0.51-0.92-1.29-3.05-1.65-4.79c-0.82-0.23-2.31-0.55-4.27-0.55c-3.69,0-5.72,1.58-5.72,4.46c0,2.08,1.13,3.51,3.65,4.64
		c1.31,0.6,2.14,0.9,3.51,1.4l1.32,0.48C380.77,55.88,383.14,58.79,383.14,63.37 M209.81,72.66h-23.6v-0.4
		c0-2.15,1.04-2.58,4.23-3.15V43.45c-3.19-0.57-4.23-1-4.23-3.15v-0.4h23.64l0.1,0.25c0.21,0.56,0.32,1.32,0.32,2.33
		c0,1.74-0.67,4.2-1.14,5.39l-0.1,0.25h-1.98l-0.11-0.23c-0.7-1.54-1.13-2.85-1.51-4.58h-9.82v10.23h10.59l-0.04,2.03
		c-0.53,1.06-1.49,1.58-2.93,1.58h-7.62v12.08h9.91c0.38-1.95,0.84-3.47,1.47-4.87l0.11-0.23h1.98l0.1,0.25
		c0.48,1.19,1.15,3.69,1.15,5.54c0,0.87-0.16,1.8-0.42,2.47L209.81,72.66z M375.98,117.14l-4.85-7.14c3.99-1.74,6.45-5.17,6.45-9.06
		c0-5.76-3.94-8.94-11.11-8.94c-0.65,0-1.95,0.03-3.37,0.06c-1.73,0.04-3.65,0.09-4.81,0.09h-6.52v0.4c0,2.18,1.06,2.62,4.29,3.2
		v26.11c-3.28,0.58-4.44,1.03-4.44,3.15v0.4h14.22v-2.47l-0.28-0.09c-0.9-0.3-2.3-0.61-4.26-0.95v-10.65
		c1.58,0.18,3.07,0.18,4.53,0.02l6.37,9.46c2.71,3.99,4.31,5.21,6.85,5.21c1.26,0,2.38-0.46,2.95-0.86l0.17-0.12v-2l-0.24-0.11
		C379.44,121.79,377.92,120.03,375.98,117.14 M364.11,108.05L364.11,108.05c-0.87,0-1.81-0.07-2.81-0.2V95.43
		c1.15-0.11,2.94-0.11,3.84-0.11c4.51,0,6.8,2.02,6.8,6.01c0,1.24-0.25,3.02-1.44,4.41C369.19,107.27,367.05,108.05,364.11,108.05
		 M268.61,92.15h13.04v0.4c0,2.13-1.16,2.58-4.44,3.15v24.27c0,2.02,0,5.78-3.51,5.78h-1.15l-0.12-0.17l-17.22-24.79v21.11
		c1.46,0.25,3.19,0.57,4.31,0.95l0.28,0.09v2.47h-13.09v-0.4c0-2.13,1.16-2.58,4.44-3.15V95.75c-3.18-0.61-4-1.1-4-3.2v-0.4h5.73
		c1.98,0,3,0.51,4.03,2l16.23,23.69V95.66c-1.96-0.33-3.36-0.65-4.26-0.94l-0.28-0.09V92.15z"/>
</g>
</svg>
